<svg xmlns="http://www.w3.org/2000/svg" width="224" height="38.338" viewBox="0 0 224 38.338"><defs><style>.a{fill:#db0032;}.b{fill:#1e4489;}</style></defs><path class="a" d="M662.328,282.14a21.291,21.291,0,0,0-6.28-4.936c.391-.441.769-.9,1.125-1.379a20.452,20.452,0,0,0,3.526-7.479.919.919,0,0,0-.049-.5,3.635,3.635,0,0,1-.6-2,3.7,3.7,0,0,1,1.022-2.553.585.585,0,0,0,.074-.607,20.137,20.137,0,0,0-8.815,4.739A19.984,19.984,0,0,0,645.7,254.51a18.947,18.947,0,0,0,0,28.913h0a22.421,22.421,0,0,0,12.2.5,3.685,3.685,0,0,1,3.057-1.625,3.956,3.956,0,0,1,.5.035,1.18,1.18,0,0,0,.649-.021A.5.5,0,0,0,662.328,282.14Z" transform="translate(-438.328 -254.51)"/><path class="a" d="M624.389,297.944h0c-3.7-3.526-4.76-8.011-4.891-12.288a11.183,11.183,0,0,1,.081-1.41,18.024,18.024,0,0,0-7.785-4.305.532.532,0,0,0,.077.6,3.315,3.315,0,0,1,.832,2.239,3.242,3.242,0,0,1-.529,1.763.856.856,0,0,0-.085.476,18.36,18.36,0,0,0,3.082,6.763c.314.434.649.85.994,1.252,2.634,2.546,4.281,3.815,8.068,4.936h.159Z" transform="translate(-420.678 -270.973)"/><path class="a" d="M619.3,325.7c-3.526-.628-6.484-2.637-9.21-5.391a18.989,18.989,0,0,0-5.589,4.608.487.487,0,0,0,.3.152h.046a1.377,1.377,0,0,0,.321-.028h0a3.14,3.14,0,0,1,.607-.07,3.293,3.293,0,0,1,2.771,1.41,19.848,19.848,0,0,0,7.249.24c.448-.067.9-.152,1.347-.25a20.86,20.86,0,0,0,2.288-.652Z" transform="translate(-415.993 -297.109)"/><path class="b" d="M82.306,300.626H77.99l-8.11-21.509h5.783L80.148,292.4l4.443-13.3h5.783Z" transform="translate(-69.88 -270.43)"/><path class="b" d="M143.781,300.846h-5.5V279.44h5.5Z" transform="translate(-114.162 -270.65)"/><path class="b" d="M255.205,300.5h-4.527l-4.612-13.554L241.454,300.5H236.93l-6.77-21.593H236l3.554,13.346,4.482-13.346h4.02l4.527,13.346,3.554-13.346h5.8Z" transform="translate(-173.645 -270.307)"/><path class="b" d="M476.5,300.846H471V279.44h5.5Z" transform="translate(-329.565 -270.65)"/><path class="b" d="M516.075,278.865a8.28,8.28,0,0,1,2.243,6.262v14.086h-5.5V285.886c0-3-1.862-4.02-3.639-4.02s-3.681,1.015-3.681,4.02v13.328H500V277.173h5.374V279.2a7.542,7.542,0,0,1,5.5-2.285A6.986,6.986,0,0,1,516.075,278.865Z" transform="translate(-348.34 -269.017)"/><path class="b" d="M569.691,267.5h3.879v4.189h-3.879v10.578c0,1.269.592,1.989,1.9,1.989h1.989v4.654h-3a5.979,5.979,0,0,1-6.389-6.3V261h5.5Z" transform="translate(-389.896 -258.712)"/><path class="b" d="M187.245,288.492a9.327,9.327,0,0,1-.088,1.523H171.773a5.349,5.349,0,0,0,5.356,5.2,4.757,4.757,0,0,0,4.15-2.116h5.663c-1.34,3.424-4.408,6.386-9.873,6.386a10.633,10.633,0,0,1-11.019-10.994c0-5.79,3.879-10.652,10.631-10.652C183.528,277.84,187.245,282.833,187.245,288.492Zm-15.426-2.366H181.5a4.873,4.873,0,0,0-9.679,0Z" transform="translate(-132.14 -269.614)"/><path class="b" d="M328.44,278.971h5.444v2.68h.173a7.275,7.275,0,0,1,6.312-3.24c5.268,0,9.852,4.231,9.852,10.888,0,7.824-5.4,10.631-9.422,10.631-3.371,0-5.4-1.079-6.742-2.853h-.173v11.244H328.44Zm16.551,10.37c0-2.979-1.728-5.962-5.359-5.962-2.895,0-5.141,2.377-5.141,5.994,0,3.5,2.419,5.92,5.187,5.92,3.628,0,5.314-2.923,5.314-5.962Z" transform="translate(-237.272 -269.983)"/><path class="b" d="M409.984,278.33a10.991,10.991,0,1,0,10.987,10.989,10.991,10.991,0,0,0-10.987-10.989Zm.056,17.1a6.054,6.054,0,1,1,6.054-6.051A6.054,6.054,0,0,1,410.041,295.431Z" transform="translate(-282.946 -269.931)"/></svg>